:SAMPLES-PER-SECOND 24
:FULLY-SPECIFIED
:DEGREES
82
root  -7.32242 38.3489 -8.776 30.9312 74.7981 32.2532
RightUpLeg  -16.6196 -11.0127 -18.8635
RightLeg  68.8925 1.80071 4.4454
RightFoot  3.55225 -0.939935 7.36739
RightToes  -1.74623e-010 0 -2.59999e-017
Spine  4.78366 6.29088 3.51574
Spine1  15.3085 8.80196 -11.0076
HEad  -19.7406 54.7565 -35.991
LeftShoulder1  2.00201 -3.29273 -23.1893
LeftArm  8.01074 9.66935 -38.0795
LeftForeArm  57.8091 -74.639 -35.5727
LeftHand  0.0439614 10.3396 2.25102
RightShoulder  3.18107 5.64425 28.8397
RightArm  8.91031 -3.62988 46.9771
RightForeArm  156.67 74.1389 144.024
RightHand  0.0296507 -7.98562 -3.08852
LeftUpLeg  -6.09021 10.6418 -0.0825844
LeftLeg  28.4302 -3.86717 -1.89071
LeftFoot  -13.1152 -0.0702319 -9.58406
LeftToes  -6.27559e-011 -2.10356e-011 8.24929e-012
83
root  -6.80239 38.5241 -7.53593 39.1982 78.4275 41.0193
RightUpLeg  -18.988 -6.04546 -19.6796
RightLeg  61.3686 -0.380798 -1.26378
RightFoot  1.12074 -0.737221 6.87697
RightToes  -1.74623e-010 0 -2.59999e-017
Spine  5.07633 4.9166 2.52383
Spine1  13.9543 7.12625 -9.8876
HEad  -18.9428 55.3138 -35.8663
LeftShoulder1  2.00866 -3.43866 -22.6376
LeftArm  9.798 10.4294 -37.4453
LeftForeArm  54.5388 -73.4406 -32.5409
LeftHand  -0.060372 10.172 -0.109178
RightShoulder  3.10724 5.56746 28.3049
RightArm  11.5804 -3.38719 47.4431
RightForeArm  157.328 71.6526 149.074
RightHand  -0.00378679 -6.0562 -4.12141
LeftUpLeg  -3.62822 8.0537 2.5658
LeftLeg  25.4548 -5.749 -2.64474
LeftFoot  -11.4169 0.060905 -10.6924
LeftToes  -6.27559e-011 -2.10356e-011 8.24929e-012
84
root  -6.32795 38.4726 -6.21893 63.6389 81.8781 66.0232
RightUpLeg  -19.143 -1.30306 -21.8201
RightLeg  51.009 -1.23434 -2.03527
RightFoot  -2.64228 -0.653805 8.29393
RightToes  -1.74623e-010 0 -2.59999e-017
Spine  5.45678 3.51622 1.04546
Spine1  13.1383 5.20668 -7.84932
HEad  -18.4394 55.0185 -35.5507
LeftShoulder1  2.03873 -3.68021 -22.0523
LeftArm  10.8271 9.77475 -37.8176
LeftForeArm  54.3543 -72.9278 -31.1789
LeftHand  -0.159258 9.50818 -2.90383
RightShoulder  2.962 5.37803 27.3712
RightArm  12.8988 -2.65767 47.1594
RightForeArm  154.878 70.1739 151.086
RightHand  -0.0301164 -5.24387 -3.28373
LeftUpLeg  -2.15079 5.48047 5.07273
LeftLeg  23.5196 -8.40514 -3.69588
LeftFoot  -11.0711 0.0941313 -12.0848
LeftToes  -6.27559e-011 -2.10356e-011 8.24929e-012
85
root  -5.89443 38.169 -4.81446 107.776 82.7117 110.891
RightUpLeg  -17.9923 6.29069 -23.6781
RightLeg  40.4582 1.20032 0.789744
RightFoot  -5.69923 -0.415384 7.45976
RightToes  -1.74623e-010 0 -2.59999e-017
Spine  6.24556 2.39456 0.933115
Spine1  12.8113 3.77039 -6.24709
HEad  -18.1902 53.7415 -35.1197
LeftShoulder1  2.02004 -3.79669 -21.2982
LeftArm  11.0298 7.60046 -39.5588
LeftForeArm  50.7247 -72.204 -30.1284
LeftHand  -0.127792 9.03742 -2.37865
RightShoulder  2.88151 5.25738 26.8968
RightArm  12.6562 -1.90854 45.6615
RightForeArm  151.962 69.8504 151.168
RightHand  -0.0275891 -5.4041 -2.27177
LeftUpLeg  -2.03335 2.40603 8.02933
LeftLeg  23.3102 -11.556 -5.06579
LeftFoot  -11.5245 0.0472027 -13.5215
LeftToes  -6.27559e-011 -2.10356e-011 8.24929e-012
86
root  -5.4709 37.5483 -3.14965 143.005 78.8065 146.973
RightUpLeg  -16.7525 13.2889 -25.0317
RightLeg  35.4828 6.37622 4.62248
RightFoot  -9.14054 -0.277422 11.1648
RightToes  -1.74623e-010 0 -2.59999e-017
Spine  7.06899 1.39375 0.995434
Spine1  12.9048 2.49235 -5.4253
HEad  -17.9526 51.8654 -34.2706
LeftShoulder1  2.01457 -3.80814 -21.1724
LeftArm  9.78245 5.30423 -41.7736
LeftForeArm  46.4938 -72.0568 -30.6513
LeftHand  -0.00481856 9.01582 1.34877
RightShoulder  2.90605 5.28081 27.0954
RightArm  11.8323 -1.40072 43.5188
RightForeArm  148.757 70.929 149.021
RightHand  -0.00922972 -6.30447 -2.8133
LeftUpLeg  -4.05562 -1.42652 11.4976
LeftLeg  25.5707 -13.9676 -6.83932
LeftFoot  -12.355 -0.0573979 -14.7503
LeftToes  -6.27559e-011 -2.10356e-011 8.24929e-012
87
root  -5.00574 36.8391 -1.17658 157.391 72.6167 162.036
RightUpLeg  -15.9783 11.7092 -24.0978
RightLeg  38.9155 11.7455 9.78533
RightFoot  -14.5056 0.332125 15.8597
RightToes  -1.74623e-010 0 -2.59999e-017
Spine  7.24745 0.828581 1.09308
Spine1  13.8949 1.68753 -4.95469
HEad  -17.8736 49.228 -33.0609
LeftShoulder1  2.07096 -3.82302 -21.9321
LeftArm  7.2144 4.25851 -43.8303
LeftForeArm  46.2171 -73.376 -34.3674
LeftHand  0.180495 8.91259 7.21086
RightShoulder  2.95479 5.32732 27.4866
RightArm  10.9168 -1.12206 42.3218
RightForeArm  144.727 73.0071 144.471
RightHand  0.0940204 -8.62492 -4.74711
LeftUpLeg  -6.8915 -5.29113 15.4146
LeftLeg  27.1992 -16 -8.40562
LeftFoot  -13.0265 -0.178718 -17.2625
LeftToes  -6.27559e-011 -2.10356e-011 8.24929e-012
88
root  -4.53882 36.3268 1.05798 163.513 67.5666 168.341
RightUpLeg  -16.3028 5.1018 -20.351
RightLeg  45.2719 11.9765 12.334
RightFoot  -19.5411 0.816364 13.4591
RightToes  -1.74623e-010 0 -2.59999e-017
Spine  7.06679 1.27867 2.9136
Spine1  15.5777 2.62047 -5.82384
HEad  -18.7015 45.3642 -32.7397
LeftShoulder1  2.14794 -3.80181 -23.1352
LeftArm  4.92895 4.36883 -45.3318
LeftForeArm  48.6534 -75.3222 -41.0527
LeftHand  0.381188 8.71663 14.1892
RightShoulder  3.05195 5.42096 28.2465
RightArm  10.1093 -0.469754 42.2496
RightForeArm  140.287 74.764 139.447
RightHand  0.240886 -11.0285 -5.97898
LeftUpLeg  -9.21194 -9.66774 19.4957
LeftLeg  25.3374 -16.0761 -7.92097
LeftFoot  -10.7126 0.194124 -21.0545
LeftToes  -6.27559e-011 -2.10356e-011 8.24929e-012
89
root  -4.14336 36.2497 3.35985 166.508 63.7807 171.001
RightUpLeg  -17.5768 0.0236011 -16.0209
RightLeg  48.3964 9.46897 10.9226
RightFoot  -20.7941 0.532851 8.10057
RightToes  -1.74623e-010 0 -2.59999e-017
Spine  7.29258 1.96898 6.19742
Spine1  16.8043 4.73427 -8.51718
HEad  -20.0356 41.3149 -32.8306
LeftShoulder1  2.23809 -3.86565 -24.1532
LeftArm  3.43641 6.15568 -45.663
LeftForeArm  54.2084 -77.0623 -49.3119
LeftHand  0.619673 9.12619 19.5269
RightShoulder  3.16709 5.57587 28.951
RightArm  10.3315 1.30854 43.0487
RightForeArm  136.091 75.3344 136.983
RightHand  0.231311 -11.3217 -5.51461
LeftUpLeg  -10.2959 -8.11572 21.7022
LeftLeg  19.5977 -12.3414 -3.06485
LeftFoot  -1.71499 1.98682 -22.7402
LeftToes  -6.27559e-011 -2.10356e-011 8.24929e-012
90
root  -3.8175 36.6525 5.47389 167.415 59.9129 171.194
RightUpLeg  -18.2607 -2.6613 -13.1698
RightLeg  47.7837 8.15538 9.20807
RightFoot  -18.8478 0.31547 6.75193
RightToes  -1.74623e-010 0 -2.59999e-017
Spine  7.36804 2.03037 7.8968
Spine1  17.3435 6.07336 -11.2333
HEad  -20.785 38.864 -31.5111
LeftShoulder1  2.29823 -4.08289 -24.0752
LeftArm  2.62973 10.7279 -45.5072
LeftForeArm  66.6053 -78.6835 -59.3228
LeftHand  0.780218 9.85344 20.467
RightShoulder  3.09781 5.55865 28.2329
RightArm  12.3336 3.41581 45.1743
RightForeArm  135.203 74.3102 139.707
RightHand  0.153114 -10.1826 -4.84119
LeftUpLeg  -10.4609 3.87967 20.075
LeftLeg  13.2219 -3.91369 1.9216
LeftFoot  10.6651 3.16768 -16.5322
LeftToes  -6.27559e-011 -2.10356e-011 8.24929e-012
91
root  -3.60183 37.544 7.27729 168.051 55.9845 170.944
RightUpLeg  -16.817 -3.6267 -10.9433
RightLeg  42.6277 6.57455 6.21208
RightFoot  -15.7101 0.14856 6.46643
RightToes  -1.74623e-010 0 -2.59999e-017
Spine  6.59725 1.72324 6.94444
Spine1  17.6736 5.97805 -11.7792
HEad  -20.5364 38.2077 -29.3575
LeftShoulder1  2.29651 -4.25852 -23.3306
LeftArm  3.74667 16.317 -45.5886
LeftForeArm  76.3815 -79.4611 -64.943
LeftHand  0.496152 8.71764 17.6707
RightShoulder  2.90504 5.34696 26.8272
RightArm  15.1207 4.29733 47.3126
RightForeArm  138.331 71.2294 146.939
RightHand  0.0876332 -8.79794 -4.37919
LeftUpLeg  -10.408 9.90839 17.0575
LeftLeg  12.3235 8.00378 2.01331
LeftFoot  14.5276 1.80769 -8.15881
LeftToes  -6.27559e-011 -2.10356e-011 8.24929e-012
92
root  -3.61094 39.2125 8.84415 169.213 52.6064 171.4
RightUpLeg  -12.5527 -4.29513 -8.66859
RightLeg  30.2484 4.67783 2.69617
RightFoot  -6.58917 -0.188742 4.52746
RightToes  -1.74623e-010 0 -2.59999e-017
Spine  6.14701 1.3642 5.35699
Spine1  17.2068 5.14658 -10.3763
HEad  -18.9486 38.5036 -27.5876
LeftShoulder1  2.27643 -4.3383 -22.7426
LeftArm  6.73825 20.0707 -45.8673
LeftForeArm  69.1883 -78.6166 -56.4817
LeftHand  0.0691987 6.1408 12.9674
RightShoulder  2.8508 5.22241 26.6686
RightArm  16.79 3.195 47.5716
RightForeArm  140.37 66.9296 153.582
RightHand  0.0147385 -7.48161 -2.86133
LeftUpLeg  -9.19797 13.6523 11.7295
LeftLeg  15.9305 4.26455 0.906851
LeftFoot  13.5186 1.60431 -7.6528
LeftToes  -6.27559e-011 -2.10356e-011 8.24929e-012
